<?xml version="1.0" encoding="utf-8"?>
<!-- Generator: Adobe Illustrator 16.0.0, SVG Export Plug-In . SVG Version: 6.00 Build 0)  -->
<!DOCTYPE svg PUBLIC "-//W3C//DTD SVG 1.1//EN" "http://www.w3.org/Graphics/SVG/1.1/DTD/svg11.dtd">
<svg version="1.1" id="Layer_1" xmlns="http://www.w3.org/2000/svg" xmlns:xlink="http://www.w3.org/1999/xlink" x="0px" y="0px"
	 width="38.519px" height="51.032px" viewBox="0 0 38.519 51.032" enable-background="new 0 0 38.519 51.032" xml:space="preserve">
<g>
	<path fill="#F7323F" d="M27.885,0.463L22.678,5.67h1.668h0.002c4.695,0,8.504,3.807,8.504,8.503c0,4.697-3.809,8.505-8.504,8.505
		v-0.001H5.67L0,28.347v22.686l5.668-5.67V28.347h18.678h0.002c7.826,0,14.171-6.346,14.171-14.174
		C38.519,7.569,33.996,2.037,27.885,0.463z"/>
	<polygon fill="#F7323F" points="5.676,11.342 0.668,11.342 5.668,5.67 17.01,5.67 22.68,0 0,0 0,5.668 0,22.68 11.346,11.342 	"/>
</g>
</svg>
