<?xml version="1.0" encoding="utf-8"?>
<!-- Generator: Adobe Illustrator 16.0.0, SVG Export Plug-In . SVG Version: 6.00 Build 0)  -->
<!DOCTYPE svg PUBLIC "-//W3C//DTD SVG 1.1//EN" "http://www.w3.org/Graphics/SVG/1.1/DTD/svg11.dtd">
<svg version="1.1" id="Layer_1" xmlns="http://www.w3.org/2000/svg" xmlns:xlink="http://www.w3.org/1999/xlink" x="0px" y="0px"
	 width="304px" height="84px" viewBox="0 0 304 84" enable-background="new 0 0 304 84" xml:space="preserve">
<g>
	<g>
		<path fill="#F7323F" d="M45.777,0.76l-8.548,8.548h2.738h0.003c7.708,0,13.96,6.25,13.96,13.959
			c0,7.711-6.252,13.962-13.96,13.962v-0.001H9.308L0,46.536v37.242l9.305-9.309V46.536h30.663h0.003
			c12.848,0,23.264-10.418,23.264-23.269C63.235,12.427,55.811,3.344,45.777,0.76z"/>
		<polygon fill="#F7323F" points="9.318,18.62 1.096,18.62 9.305,9.308 27.924,9.308 37.233,0 0,0 0,9.305 0,37.233 18.626,18.62 		
			"/>
	</g>
</g>
<g>
	<path fill="#55565A" d="M88.054,0.229h11.702c7.101,0,11.985,3.64,11.985,9.864v0.086c0,6.782-5.852,10.279-12.583,10.279h-8.706
		v12.033h-2.399V0.229z M99.301,18.25c5.988,0,10.046-3.134,10.046-7.923v-0.095c0-5.117-3.964-7.789-9.773-7.789h-9.121V18.25
		H99.301z"/>
	<path fill="#55565A" d="M122.759,0.229h2.399v32.263h-2.399V0.229z"/>
	<path fill="#55565A" d="M164.285,0.229l-12.39,15.804l12.854,16.459h-2.854l-11.48-14.887l-11.429,14.887h-2.814l12.82-16.459
		L136.637,0.229h2.851l11.021,14.239l10.968-14.239H164.285z"/>
	<path fill="#55565A" d="M175.766,0.229h22.949v2.212h-20.553v12.674h18.474v2.214h-18.474v12.946h20.782v2.216h-23.179V0.229z"/>
	<path fill="#55565A" d="M209.962,0.229h2.398v30.046h18.938v2.216h-21.337V0.229z"/>
	<path fill="#55565A" d="M88.054,51.444h22.719v2.214h-20.32V66.89h18.246v2.212H90.453v14.61h-2.399V51.444z"/>
	<path fill="#55565A" d="M122.898,51.444h2.398v30.051h18.945v2.217h-21.344V51.444z"/>
	<path fill="#55565A" d="M168.293,51.216h2.307l15.027,32.496h-2.629L178.9,74.67h-19.036l-4.102,9.042h-2.494L168.293,51.216z
		 M177.88,72.508l-8.48-18.664l-8.521,18.664H177.88z"/>
	<path fill="#55565A" d="M196.636,51.444h2.268l12.948,19.089l12.946-19.089h2.263v32.268h-2.402V55.686l-12.76,18.569h-0.186
		l-12.769-18.569v28.026h-2.309V51.444z"/>
	<path fill="#55565A" d="M238.074,51.444h22.954v2.214h-20.558v12.674h18.475v2.216h-18.475v12.947h20.782v2.217h-23.179V51.444z"/>
	<path fill="#55565A" d="M271.488,79.009l1.565-1.798C276.6,80.483,279.875,82,284.621,82c4.841,0,8.16-2.714,8.16-6.405v-0.091
		c0-3.414-1.798-5.387-9.129-6.869c-7.737-1.564-10.876-4.192-10.876-9.076v-0.088c0-4.797,4.383-8.487,10.367-8.487
		c4.702,0,7.796,1.291,11.065,3.916l-1.515,1.899c-3.043-2.635-6.093-3.65-9.64-3.65c-4.745,0-7.875,2.723-7.875,6.086v0.09
		c0,3.411,1.746,5.489,9.396,7.055c7.47,1.521,10.6,4.197,10.6,8.898v0.085c0,5.212-4.469,8.809-10.687,8.809
		C279.321,84.171,275.36,82.463,271.488,79.009z"/>
</g>
</svg>
