<svg xmlns="http://www.w3.org/2000/svg" width="35.839" height="36"><defs><linearGradient id="a" x1=".5" y1="1" x2=".5" gradientUnits="objectBoundingBox"><stop offset="0" stop-color="#20b038"/><stop offset="1" stop-color="#60d66a"/></linearGradient></defs><path data-name="Path 723" d="M103.5 137.566l2.444-8.924a17.228 17.228 0 1114.928 8.625h-.008a17.222 17.222 0 01-8.232-2.1zm0 0" transform="translate(-102.875 -102.189)" fill="url(#a)"/><g data-name="Group 22" fill="#fff" fill-rule="evenodd"><path data-name="Path 724" d="M30.618 5.232A17.846 17.846 0 002.532 26.756L0 36l9.46-2.48a17.835 17.835 0 008.527 2.172h.008A17.846 17.846 0 0030.618 5.233zM17.995 32.679h-.006a14.817 14.817 0 01-7.549-2.068l-.542-.321-5.614 1.472 1.5-5.471-.353-.561a14.832 14.832 0 1112.565 6.949zm0 0"/><path data-name="Path 725" d="M26.13 21.573c-.446-.223-2.638-1.3-3.047-1.451s-.706-.223-1 .224-1.152 1.45-1.412 1.747-.52.335-.966.112a12.2 12.2 0 01-3.586-2.213 13.437 13.437 0 01-2.48-3.088c-.26-.446-.028-.688.2-.91.2-.2.446-.52.669-.781a3.062 3.062 0 00.446-.744.821.821 0 00-.037-.781c-.112-.223-.978-2.428-1.375-3.31-.334-.742-.686-.757-1-.77-.26-.011-.557-.011-.854-.011a1.638 1.638 0 00-1.189.558 5 5 0 00-1.561 3.718 8.676 8.676 0 001.821 4.611c.223.3 3.085 4.943 7.617 6.73 3.766 1.485 4.533 1.19 5.35 1.115a4.5 4.5 0 003.01-2.119 3.73 3.73 0 00.26-2.12c-.123-.182-.421-.294-.866-.517zm0 0"/></g></svg>